#define icon_width 40
#define icon_height 40
static unsigned char icon_bits[] = {
   0x00, 0x00, 0x00, 0x00, 0x00, 0x00, 0x00, 0x00, 0x00, 0x04, 0x00, 0x00,
   0x00, 0x00, 0x0c, 0x00, 0x80, 0x00, 0x00, 0x14, 0x00, 0xc0, 0x01, 0x00,
   0x3a, 0x00, 0x80, 0x00, 0x00, 0x04, 0x00, 0x00, 0x00, 0x00, 0x01, 0x00,
   0x00, 0x00, 0x00, 0x00, 0x00, 0x00, 0x00, 0x40, 0x00, 0x00, 0x00, 0x00,
   0x00, 0x00, 0x00, 0x00, 0xfe, 0x11, 0x00, 0x00, 0x00, 0x00, 0x02, 0x00,
   0x00, 0x00, 0xfe, 0x04, 0x00, 0x00, 0x00, 0x01, 0x09, 0x00, 0x00, 0x80,
   0x78, 0x12, 0x00, 0x00, 0x40, 0x80, 0x04, 0x00, 0x00, 0x28, 0x00, 0x01,
   0x00, 0x00, 0x28, 0x58, 0x02, 0x00, 0x00, 0xa8, 0x2c, 0x02, 0x00, 0x00,
   0xa8, 0x54, 0x02, 0x00, 0x00, 0xa8, 0x6e, 0x02, 0x00, 0x00, 0xa8, 0x38,
   0x02, 0x00, 0x00, 0x08, 0x09, 0x01, 0x00, 0x00, 0x08, 0x82, 0x04, 0x00,
   0x00, 0x10, 0x00, 0x12, 0x00, 0x00, 0x20, 0x00, 0x09, 0x00, 0x00, 0x40,
   0xfc, 0x04, 0x00, 0x00, 0x80, 0x00, 0x02, 0x00, 0x00, 0x00, 0xff, 0x01,
   0x00, 0x00, 0x00, 0x00, 0x00, 0x00, 0x00, 0x00, 0x00, 0x00, 0x00, 0x00,
   0x00, 0x00, 0x00, 0x00, 0x00, 0x00, 0x00, 0x00, 0x02, 0x00, 0x00, 0x00,
   0x00, 0x07, 0x00, 0x00, 0x00, 0x00, 0x02, 0x00, 0x00, 0x00, 0x00, 0x00,
   0x00, 0x00, 0x00, 0x00, 0x00, 0x00, 0x00, 0x00, 0x00, 0x00, 0x00, 0x00,
   0x00, 0x00, 0x00, 0x00, 0x00, 0x00, 0x00, 0x00};
